<svg xmlns="http://www.w3.org/2000/svg" viewBox="0 0 512 512" role="img" aria-labelledby="title desc">
  <title id="title">Accessibility Friction Overlay Icon</title>
  <desc id="desc">Merchant-facing accessibility monitoring icon for the Ecwid app.</desc>
  <defs>
    <linearGradient id="bg" x1="0" x2="1" y1="0" y2="1">
      <stop offset="0%" stop-color="#f7edd8"/>
      <stop offset="100%" stop-color="#ead6b0"/>
    </linearGradient>
  </defs>
  <rect width="512" height="512" rx="112" fill="url(#bg)"/>
  <circle cx="256" cy="256" r="148" fill="#0f766e" opacity="0.14"/>
  <path d="M156 176h200c17.673 0 32 14.327 32 32v96c0 17.673-14.327 32-32 32H230l-54 44v-44h-20c-17.673 0-32-14.327-32-32v-96c0-17.673 14.327-32 32-32Z" fill="#fffaf2" stroke="#1d2421" stroke-width="16"/>
  <path d="M208 256c12-28 32-42 60-42 23 0 43 9 60 27" fill="none" stroke="#0f766e" stroke-linecap="round" stroke-width="20"/>
  <path d="M306 211h22v22" fill="none" stroke="#0f766e" stroke-linecap="round" stroke-linejoin="round" stroke-width="20"/>
  <circle cx="220" cy="276" r="18" fill="#b46f36"/>
  <circle cx="292" cy="276" r="18" fill="#0f766e"/>
  <rect x="184" y="120" width="144" height="34" rx="17" fill="#1d2421" opacity="0.12"/>
  <text x="256" y="430" text-anchor="middle" font-family="Avenir Next, Segoe UI, sans-serif" font-size="44" font-weight="700" fill="#1d2421">AFO</text>
</svg>